<svg viewBox="0 0 1011.17 613.64" xmlns="http://www.w3.org/2000/svg"><path d="m126.66 206.23c0-49.91 28-90.47 86.77-90.47 42.28 0 66.62 21.88 66.62 48.43 0 21.14-11.8 34.66-30.24 34.66-7.62 0-18.68-1.72-27.28-7.62 6.63-16.23 10.57-49.16-11.53-49.16-16.71 0-27 22.37-27 50.14 0 47.94 21.14 61.7 49.9 61.7 18.93 0 38.35-5.65 51.38-18.43-12 45-43.51 61.7-74.48 61.7-56.12 0-84.14-40.56-84.14-90.95zm163.46 33.18c0-39.08 22.86-74.48 64.41-74.48 20.15 0 30 7.62 44.49 7.62a42.12 42.12 0 0 0 19.42-4.18c-1 16.47-1.48 31.22-1.48 44.49 0 47 .25 65.88 11.31 76.21-10.32 5.16-21.14 5.9-28.51 5.65-16-.24-25.81-6.39-27.78-22.37-10.33 19.18-26.06 23.35-37.37 23.35-10.81 0-44.49-3.7-44.49-56.29zm61.7 24.09c10.82 0 20.16-15.73 20.16-45v-29.24c-25.81-7.12-33.43 20.16-33.43 47.69 0 19.67 5.65 26.55 13.27 26.55zm88.99 26.8c2.46-58.75.24-105.46-1.48-121.93 7.87 3.44 21.14 6.39 30 6.39 16.23 0 27-9.83 46.71-9.83 25.56 0 33.67 15 33.67 28.51 0 16.23-9.09 28.27-26.3 28.27-5.41 0-12-1-17.21-4.42 3.94-9.84 5.41-28.52-5.65-28.52a15.81 15.81 0 0 0 -13.55 8.12c-.49 28.51.74 57 1.48 85.54.24 8.6-14.26 12.29-27.29 12.29-7.6 0-15.19-1.47-20.38-4.42zm115.77-60.23c0-35.89 23.85-65.14 69.32-65.14 39.33 0 55.07 21.88 55.07 40.07 0 22.37-23.85 41.79-72 38.59 5.41 11.31 16.72 18.19 36.63 18.19 10.82 0 24.09-1.47 38.59-9.83-8.85 32.45-32.2 43.75-59.73 43.75-43.54 0-67.88-29.25-67.88-65.63zm48.18-3.93c17.7-.25 29.26-9.84 29.26-25.32 0-8.85-3.94-17-12-17-11.55 0-17.45 16.22-17.45 36.13a52.7 52.7 0 0 0 .19 6.19z" fill="#f18818"/><path d="m463.63 419c0-35.89 24.34-65.14 66.37-65.14 43.51 0 67.85 29.25 67.85 65.63 0 35.89-24.34 65.15-66.37 65.15-43.48 0-67.85-29.26-67.85-65.64zm49.91 3c2.94 28.27 8.6 41.79 20.64 41.79 13 0 15-15.73 15-28 0-5.41-.49-11.8-1.23-19.18-3-28.26-8.6-41.79-20.65-41.79-13 0-15 15.74-15 28 .01 5.37.5 11.76 1.24 19.18zm105.94 16.67v-22.37c0-6.15-.24-15.24-.49-26.55h-14.75c-5.16-2.46-4.18-32 6.15-32h7.86v-3c-.74-27.28 34.66-32.69 48.43-29-.49 9.09-1 17.7-1.23 32h19.17c5.17 2.46 4.18 32-6.14 32h-13.28v12.78c0 46 4.92 64.9 20.65 65.39-10.57 13.27-28.27 15.49-37.36 15.49-24.83 0-29.01-20.41-29.01-44.74z" fill="#fabb70"/><path d="m810 169c0 3.93-.16 7.75-.46 11.43-1.87 23.1-9.31 40.37-18.19 40.37s-16.35-17.3-18.21-40.4c-.3-3.68-.46-7.5-.46-11.43 0-16.5 2.78-31.21 7.1-40.69 3.18-7 7.19-11.11 11.55-11.11s8.36 4.15 11.54 11.11c4.33 9.48 7.13 24.19 7.13 40.72z" fill="#84ac28"/><path d="m810 169v1.64c-.3-27.9-8.53-50.26-18.64-50.26s-18.36 22.33-18.67 50.23v-1.64c0-28.61 8.35-51.8 18.65-51.8s18.66 23.19 18.66 51.83z" fill="#fff" opacity=".18"/><path d="m809.63 171.21c-.06 3.08-.2 6.08-.44 9-1.9 23.36-9.41 40.81-18.39 40.81-6 0-11.44-7.92-14.88-20.22 10.49-2.71 23.34-10.3 33.71-29.59z" opacity=".18"/><path d="m771.47 223.3c-5.49 1.57-12.37-3.88-18.76-13.75-5.13-7.91-9.93-18.67-13.44-30.91a131.33 131.33 0 0 1 -4.27-21.26c-2.08-17.93.74-31.6 8-33.67 7-2 16.13 7.27 23.72 22.49a131.72 131.72 0 0 1 8.49 22.16c.42 1.46.81 2.9 1.17 4.34 6.43 25.71 4.48 47.91-4.91 50.6z" fill="#84ac28"/><path d="m755.22 129.18a11.55 11.55 0 0 0 -7.85-.8c-7.48 2.15-11.57 13.25-12 29.09-.16 0-.31-.05-.46-.09-2.08-17.93.74-31.6 8-33.67 3.68-1.06 7.97 1.03 12.31 5.47z" fill="#fff" opacity=".18"/><path d="m771.47 223.3c-5.49 1.57-12.37-3.88-18.76-13.75 9.45-8.25 19.61-20.25 23.28-35.65.1-.41.2-.81.31-1.2 6.51 25.71 4.56 47.91-4.83 50.6z" opacity=".18"/><path d="m843 178.64q-1.31 4.55-2.83 8.78c-.37 1-.75 2.08-1.15 3.1-8.15 21.14-19.82 35.19-28.22 32.78-6-1.73-9-11.48-8.61-25 .07-2.46.25-5.06.53-7.75a131.88 131.88 0 0 1 4.42-22.16c7.89-27.5 22.31-47.5 32.21-44.65s11.49 27.4 3.65 54.9z" fill="#84ac28"/><path d="m847.93 147.73c-1.6-8.95-5-14.94-10.17-16.41-6.37-1.83-14.18 3.62-21.68 13.92 7.49-14.65 16.43-23.49 23.23-21.53 5.87 1.68 8.83 10.99 8.62 24.02z" fill="#fff" opacity=".18"/><path d="m840.13 187.31c-.38 1.06-.76 2.11-1.16 3.13-8.24 21.37-20 35.57-28.53 33.14-6.08-1.75-9.08-11.6-8.71-25.3 10.72-.1 23.9-2.72 38.4-10.97z" opacity=".18"/><path d="m842.4 223.24a77 77 0 0 0 -45.19-18.86c-1.84-.13-3.69-.19-5.56-.19a77.27 77.27 0 0 0 -11.86.91 75.82 75.82 0 0 0 -10.15 2.28c-.84.25-1.69.52-2.53.8a77.15 77.15 0 0 0 -52.56 73.12c0 42.58 34.52 201 77.1 201a17.38 17.38 0 0 0 3.29-.32c41.06-7.82 73.82-159.21 73.82-200.69a76.92 76.92 0 0 0 -26.36-58.05z" fill="#f18818"/><path d="m868.76 281.46c0 41.48-32.76 192.87-73.82 200.69 32.57-42.82 56.16-158 56.16-194a80.58 80.58 0 0 0 -71.34-80.11 81.51 81.51 0 0 0 -9.3-.53h-.82a75.82 75.82 0 0 1 10.15-2.28 77.27 77.27 0 0 1 11.86-.91c1.87 0 3.72.06 5.56.19a77.12 77.12 0 0 1 71.55 76.92z" fill="#ce7419"/><g fill="#7a4612"><path d="m867.33 283.57a223.35 223.35 0 0 0 -100.5-9 192.94 192.94 0 0 0 -33.07 7.82.35.35 0 0 1 -.44-.21.36.36 0 0 1 .21-.44 194.36 194.36 0 0 1 33.1-8.47 224.52 224.52 0 0 1 68.27-.27 202.16 202.16 0 0 1 33.52 7.59 1.59 1.59 0 1 1 -1.09 3z" opacity=".44"/><path d="m859.85 340.75c-32.82-10.25-68.1-13.59-102-7.15a.34.34 0 1 1 -.14-.67c34-7.32 69.72-4.78 103.1 4.77a1.59 1.59 0 0 1 -.92 3.05z" opacity=".44"/><path d="m842.23 408.81c-23.06-4.85-47.4-4.67-70.46-1.88a.34.34 0 0 1 .27-.39 192.29 192.29 0 0 1 35.28-3.54 216.08 216.08 0 0 1 35.46 2.69 1.59 1.59 0 1 1 -.55 3.13z" opacity=".44"/></g><path d="m868.76 281.3c0 41.48-32.76 192.87-73.76 200.7a17.49 17.49 0 0 1 -3.3.32c-42.58 0-77.1-158.43-77.1-201a76.9 76.9 0 0 1 22.75-54.7 77.92 77.92 0 0 1 18-13.32 76.31 76.31 0 0 1 11.56-5l.25-.08c.83-.28 1.68-.55 2.53-.8a75.69 75.69 0 0 1 8.41-2l1.73-.28h.18a77.76 77.76 0 0 1 11.08-.88h.6c1.87 0 3.72.06 5.56.19s3.38.3 5 .53q1.18.17 2.37.36a75.32 75.32 0 0 1 10.29 2.5l.93.3a75.69 75.69 0 0 1 11.37 4.8 77.17 77.17 0 0 1 41.54 68.43z" fill="none" stroke="#1d1d1b" stroke-miterlimit="10" stroke-width="2.55"/><path d="m807.1 168.36c-3.91 13.67-5.48 26.63-4.84 36.55-1.67-.23-3.35-.41-5-.53s-3.69-.19-5.56-.19h-.6a77.76 77.76 0 0 0 -11.08.88c.66-9.94-.91-23-4.84-36.71q-1.05-3.66-2.24-7.12c1.34-25 9.08-44.07 18.44-44.07s16.88 18.59 18.38 43q-1.44 3.98-2.66 8.19z" fill="none" stroke="#1d1d1b" stroke-miterlimit="10" stroke-width="2.55"/><path d="m789.23 203.26 1.8-42.1a.63.63 0 0 1 1.25 0l.59 42.13a1.82 1.82 0 1 1 -3.64-.05z" fill="#1d1d1b"/><path d="m780 205.07h-.18l-1.73.28a75.69 75.69 0 0 0 -8.41 2c-.85.25-1.7.52-2.53.8l-.25.08a76.31 76.31 0 0 0 -11.56 5c-6.08-8.09-11.94-20.35-16-34.64-7.89-27.5-6.25-52.1 3.65-54.93 9-2.6 21.8 13.79 30 37.53q1.18 3.47 2.24 7.12c3.83 13.8 5.4 26.82 4.77 36.76z" fill="none" stroke="#1d1d1b" stroke-miterlimit="10" stroke-width="2.55"/><path d="m764.91 208.05-10.15-42a.62.62 0 0 1 1.2-.33l12.47 41.35a1.82 1.82 0 1 1 -3.52 1z" fill="#1d1d1b"/><path d="m843 178.64c-4 14.05-9.77 26.15-15.74 34.23a75.69 75.69 0 0 0 -11.37-4.8l-.93-.3a75.32 75.32 0 0 0 -10.29-2.5q-1.18-.2-2.37-.36c-.64-9.92.93-22.88 4.84-36.55q1.21-4.22 2.61-8.16c8.18-23.18 20.71-39 29.6-36.49 9.86 2.83 11.49 27.43 3.65 54.93z" fill="none" stroke="#1d1d1b" stroke-miterlimit="10" stroke-width="2.55"/><path d="m813.4 206.44 13.5-40.52a.62.62 0 0 1 1.19.36l-11.2 41.22a1.82 1.82 0 1 1 -3.49-1.06z" fill="#1d1d1b"/><path d="m791.4 296.42s-.59 9.54 6.46 12.33m-17.74-5.55s8.21 4.9 6.53 12.3" fill="none" stroke="#000" stroke-linecap="round" stroke-miterlimit="10" stroke-width="2.55"/><path d="m785.56 308.75a28.79 28.79 0 0 0 4.28-1.71 29.61 29.61 0 0 0 3.57-2.1" fill="none" stroke="#000" stroke-miterlimit="10" stroke-width="2.55"/><path d="m797.3 344.72c-.63.57-1.39 1.3-2.23 2.15a59.08 59.08 0 0 0 -11 15.29l-8.55-4.1a59 59 0 0 0 5.12-18.06c.14-1.19.23-2.24.29-3.09a5.25 5.25 0 0 0 2.8.12 8.17 8.17 0 0 0 2.29 4.17q-.45 1.49-1 3.18l-.33.95a2.08 2.08 0 0 0 1.06 2.56 2.08 2.08 0 0 0 2.66-.77l.53-.86c.64-1 1.26-1.93 1.84-2.78a8.3 8.3 0 0 0 4.69-.83 5.23 5.23 0 0 0 1.83 2.07z" fill="#72a62d"/><path d="m782.94 341.59a8.32 8.32 0 0 0 1.71 2.42l.35.32q.57-1.69 1-3.18a8.25 8.25 0 0 1 -1.93-3c-.08-.2-.14-.39-.2-.59 0-.09 0-.18-.08-.27 0-.1 0-.2-.07-.3a5.25 5.25 0 0 1 -2.8-.12c-.06.85-.15 1.9-.29 3.09a59 59 0 0 1 -5.07 18.11l2.36 1.13a58 58 0 0 0 5.02-17.61zm14.36 3.13c-.63.57-1.39 1.3-2.23 2.15a5.13 5.13 0 0 1 -1-1.41 8.3 8.3 0 0 1 -4.69.83l-.47-.08c.64-1 1.26-1.93 1.84-2.78a8.3 8.3 0 0 0 4.69-.83 5.23 5.23 0 0 0 1.86 2.12z" opacity=".23"/><path d="m813.15 342.94a6.62 6.62 0 0 1 -5.25 3.71 5.19 5.19 0 1 1 -10.17-1.08s-.05 0-.07 0a5.76 5.76 0 0 1 -.6-.33l-.16-.12a5.13 5.13 0 0 1 -1.68-2 8.15 8.15 0 0 1 -4.69.83h-.09a8 8 0 0 1 -2.47-.74 8.16 8.16 0 0 1 -2.12-1.46l-.06-.06a8.34 8.34 0 0 1 -2.3-4.18 5.14 5.14 0 0 1 -2.61-.06l-.19-.06a5.5 5.5 0 0 1 -.63-.25h-.07a5.32 5.32 0 0 1 -2.12 1.71 5 5 0 0 1 -1.53.41h-.54a5.19 5.19 0 0 1 -3-9.42 6.63 6.63 0 0 1 -.39-6.41 6.46 6.46 0 0 1 .72-1.16 8.77 8.77 0 0 1 .63-.72 4.74 4.74 0 0 0 1.72 2.35c3.13 2.18 8.61-.26 12.46-5.45a9.46 9.46 0 0 0 1.7 5.45 4.16 4.16 0 0 0 1.86 1.37c1.55.54 3.32.06 5-1.2a4.18 4.18 0 0 0 1.77 1.83c1.45.76 3.28.52 5.18-.5a6.25 6.25 0 0 1 1.34.27 6.68 6.68 0 0 1 .9.35 6.61 6.61 0 0 1 3.48 7.8 9 9 0 0 1 .86.34 6.61 6.61 0 0 1 3.12 8.78z" fill="#9cc651"/><path d="m789.62 323.86-.5.29a8 8 0 0 0 -.81-.46 6.55 6.55 0 0 0 -3.82-.56 6.62 6.62 0 0 0 -4.25 2.52 7 7 0 0 0 -.7 1.16 6.58 6.58 0 0 0 .39 6.41 5 5 0 0 0 -1.68 2 5.11 5.11 0 0 0 -.34 3.57 5 5 0 0 1 -1.53.41h-.54a5.19 5.19 0 0 1 -3-9.42 6.63 6.63 0 0 1 -.39-6.41 6.46 6.46 0 0 1 .72-1.16 8.77 8.77 0 0 1 .63-.72 4.74 4.74 0 0 0 1.72 2.35c3.13 2.18 8.61-.26 12.46-5.45a9.46 9.46 0 0 0 1.64 5.47z" fill="#91bd43"/><path d="m804.81 325.63a13.41 13.41 0 0 1 -1.76 1.17c-1.9 1-3.73 1.25-5.19.49a4.14 4.14 0 0 1 -1.76-1.82c-1.73 1.25-3.49 1.74-5 1.19a4.13 4.13 0 0 1 -1.86-1.36 6.36 6.36 0 0 1 -.93-1.62 11.78 11.78 0 0 1 -.77-3.83 19.59 19.59 0 0 1 -3 3.27 13.48 13.48 0 0 1 -4.25 2.52 5.67 5.67 0 0 1 -5.17-.35 4.64 4.64 0 0 1 -1.71-2.34q-.12-.34-.21-.72a8.77 8.77 0 0 1 .63-.72 4.74 4.74 0 0 0 1.72 2.35c3.13 2.18 8.61-.26 12.46-5.45a9.46 9.46 0 0 0 1.7 5.45 4.16 4.16 0 0 0 1.86 1.37c1.55.54 3.32.06 5-1.2a4.18 4.18 0 0 0 1.77 1.83c1.45.76 3.28.52 5.18-.5a6.25 6.25 0 0 1 1.29.27z" opacity=".23"/><path d="m821.85 357.37c-8.08 1.78-15.67-.42-19.16-5.65-.18-.28-3.82-6-1.34-10.73 2.61-5 10-5.14 12.53-5.18a21.78 21.78 0 0 1 12.41 3.82m-64.83 17.74c8.08 1.78 15.66-.42 19.15-5.65.19-.28 3.82-6 1.35-10.73-2.62-5-10-5.14-12.54-5.18a21.83 21.83 0 0 0 -12.42 3.82" fill="#f18919" stroke="#000" stroke-miterlimit="10" stroke-width="2.55"/><circle cx="763.32" cy="270.19" fill="#462a13" r="12.74"/><circle cx="766.67" cy="266.89" fill="#fff" r="5.57"/><circle cx="757.99" cy="275.66" fill="#fff" r="2.46"/><circle cx="819.98" cy="270.19" fill="#462a13" r="12.74"/><circle cx="823.33" cy="266.89" fill="#fff" r="5.57"/><circle cx="814.66" cy="275.66" fill="#fff" r="2.46"/></svg>