<svg width="70" height="142" viewBox="0 0 70 142" fill="none" xmlns="http://www.w3.org/2000/svg">
<path d="M38.5996 26.0793C39.2365 27.3306 39.8048 28.5727 40.3062 29.7928C43.4577 37.4493 43.9021 44.1462 41.0924 45.5761C38.2827 47.0059 33.1159 42.7002 28.7842 35.6443C28.093 34.5209 27.4234 33.3303 26.7865 32.0789C24.1129 26.8251 22.6089 21.6936 22.4396 17.9794C22.3115 15.2385 22.9143 13.2841 24.2938 12.5821C25.6733 11.88 27.6114 12.5574 29.7454 14.2615C32.6515 16.5829 35.9211 20.8159 38.5996 26.0793Z" fill="#84AC28"/>
<path opacity="0.18" d="M38.5994 26.0794C38.6885 26.2545 38.7776 26.4297 38.8651 26.6016C34.2493 17.7662 28.022 11.9716 24.8232 13.5995C21.6243 15.2274 22.6324 23.666 27.0552 32.5996C26.9677 32.4277 26.8786 32.2526 26.7895 32.0774C22.1535 22.9676 21.0377 14.2391 24.2967 12.5806C27.5557 10.9221 33.9585 16.96 38.5994 26.0794Z" fill="white"/>
<path opacity="0.18" d="M38.8406 26.8426C39.3207 27.8329 39.7625 28.8107 40.1597 29.7791C43.3438 37.5232 43.7952 44.2888 40.9539 45.7347C39.0555 46.7008 36.0509 45.055 32.9693 41.6924C35.8493 39.1404 38.6852 34.6545 38.8406 26.8426Z" fill="black"/>
<path d="M35.2073 49.5732C33.7246 50.9571 30.6646 50.3296 27.0435 48.2157C24.1386 46.5231 20.8762 43.8699 17.7823 40.5376C16.02 38.6457 14.4158 36.6114 12.9862 34.4557C9.42273 29.0815 8.09989 24.2747 10.0616 22.4466C11.9523 20.6826 16.3432 22.1642 21.211 25.7884C23.4687 27.4921 25.5696 29.3962 27.4881 31.4774C27.8576 31.8746 28.2143 32.2703 28.5615 32.6709C34.7621 39.8219 37.7424 47.2047 35.2073 49.5732Z" fill="#84AC28"/>
<path opacity="0.18" d="M14.8143 22.2208C13.8506 22.2382 12.9254 22.5955 12.2009 23.2301C10.1826 25.1191 10.6871 29.312 13.1178 34.4249C13.0672 34.4507 13.0116 34.4589 12.9577 34.4703C9.39415 29.0961 8.07132 24.2893 10.033 22.4612C11.0256 21.5311 12.7216 21.5059 14.8143 22.2208Z" fill="white"/>
<path opacity="0.18" d="M35.2073 49.5732C33.7246 50.9571 30.6646 50.3296 27.0435 48.2157C28.6967 44.0672 29.9668 38.6103 28.6326 33.1158C28.5978 32.9691 28.5646 32.8256 28.5362 32.6838C34.7621 39.8219 37.7424 47.2047 35.2073 49.5732Z" fill="black"/>
<path d="M50.6028 23.8353C50.818 24.9418 50.9937 26.0255 51.1301 27.0866C51.175 27.4646 51.2298 27.8697 51.2685 28.2589C52.1154 36.3025 50.6996 42.6553 47.6513 43.2404C45.4725 43.6557 42.9434 41.0342 40.876 36.6665C40.4995 35.8719 40.1352 35.015 39.7879 34.1134C38.8374 31.5908 38.1039 28.992 37.5956 26.3457C35.6359 16.3188 36.9576 7.62869 40.5518 6.94209C44.1461 6.25548 48.6273 13.8165 50.6028 23.8353Z" fill="#84AC28"/>
<path opacity="0.18" d="M47.1542 13.1992C45.1977 10.607 43.1513 9.24716 41.2773 9.61156C38.9652 10.0546 37.3772 13.0475 36.6732 17.5348C36.6692 11.664 38.0654 7.40969 40.5346 6.93885C42.6641 6.52861 45.1092 9.01643 47.1542 13.1992Z" fill="white"/>
<path opacity="0.18" d="M51.0998 27.0579C51.1513 27.4566 51.2012 27.8522 51.2399 28.2414C52.0956 36.3727 50.6756 42.7877 47.583 43.3874C45.3756 43.8092 42.8303 41.1559 40.7274 36.7341C44.1031 34.9761 47.8488 32.0196 51.0998 27.0579Z" fill="black"/>
<path d="M57.6401 38.1331C51.8619 36.6494 45.7689 37.0957 40.2857 39.4043C39.6824 39.6591 39.0873 39.9379 38.4957 40.239C37.239 40.8778 36.0337 41.6132 34.8905 42.4385C33.8901 43.1587 32.9406 43.9474 32.0485 44.7988C31.8232 45.0137 31.598 45.2365 31.3776 45.4609C27.3666 49.5664 24.7475 54.8389 23.8895 60.5346C23.0316 66.2303 23.9782 72.0617 26.5958 77.2064C33.4955 90.7645 70.0883 135.649 83.5608 128.793C83.9099 128.615 84.2411 128.403 84.5499 128.161C96.2744 119.06 82.1084 65.5804 75.387 52.3726C73.6085 48.8688 71.1041 45.7847 68.0427 43.3283C64.9812 40.8719 61.434 39.1004 57.6401 38.1331Z" fill="#F18818"/>
<path d="M75.4146 52.4266C82.1361 65.6344 96.302 119.114 84.5776 128.215C87.9443 109.337 76.7444 68.8633 70.9109 57.4004C67.7103 51.0992 62.3182 46.188 55.7618 43.6024C49.2054 41.0168 41.9429 40.9374 35.3575 43.3793C34.3234 43.7638 33.3122 44.2074 32.3291 44.708L32.0696 44.8401C32.9617 43.9886 33.9113 43.2 34.9117 42.4798C36.0548 41.6544 37.2601 40.9191 38.5168 40.2803C39.1085 39.9792 39.7036 39.7004 40.3068 39.4456C46.6854 36.7638 53.8514 36.6108 60.3637 39.0173C66.8761 41.4237 72.2518 46.2113 75.4098 52.4171L75.4146 52.4266Z" fill="#CE7419"/>
<g opacity="0.44">
<path d="M75.3038 53.3288C63.3382 55.158 51.9623 59.7131 42.0467 66.6454C38.7569 68.9726 35.6795 71.5877 32.8504 74.4603C32.8278 74.4834 32.7971 74.4968 32.7647 74.4975C32.7324 74.4983 32.701 74.4863 32.6771 74.4642C32.6547 74.441 32.6418 74.4103 32.6409 74.3781C32.64 74.3459 32.6512 74.3145 32.6723 74.2903C35.4638 71.3506 38.509 68.6647 41.7728 66.2637C48.3482 61.4865 55.618 57.7504 63.33 55.1849C67.1821 53.8556 71.1416 52.8584 75.1658 52.2044C75.3151 52.1863 75.4657 52.2286 75.5845 52.3219C75.7033 52.4152 75.7806 52.5518 75.7993 52.7018C75.818 52.8517 75.7767 53.0027 75.6844 53.1215C75.5921 53.2402 75.4563 53.3171 75.307 53.3351L75.3038 53.3288Z" fill="#7A4612"/>
</g>
<g opacity="0.44">
<path d="M82.2028 72.74C70.1574 74.7608 58.4535 79.3781 48.7709 86.8872C48.7585 86.8972 48.7442 86.9046 48.7289 86.9091C48.7135 86.9135 48.6975 86.9149 48.6816 86.9132C48.6495 86.9096 48.6201 86.8933 48.5998 86.868C48.5795 86.8427 48.5701 86.8104 48.5735 86.7782C48.5769 86.746 48.5929 86.7166 48.618 86.6964C58.1897 78.891 69.9032 73.9482 82.0123 71.6142C82.16 71.5879 82.3124 71.6217 82.4359 71.7081C82.5595 71.7944 82.644 71.9263 82.6709 72.0748C82.6979 72.2232 82.665 72.376 82.5796 72.4995C82.4942 72.6231 82.3632 72.7072 82.2154 72.7335L82.2028 72.74Z" fill="#7A4612"/>
</g>
<g opacity="0.44">
<path d="M87.6561 97.2483C79.5739 99.4171 71.9017 103.394 65.0575 107.995C65.0387 107.97 65.0305 107.938 65.0347 107.907C65.0388 107.875 65.055 107.847 65.0798 107.827C68.3914 105.235 71.9362 102.956 75.6689 101.019C79.413 99.0824 83.3114 97.4591 87.3245 96.1663C87.3962 96.1416 87.4722 96.1317 87.548 96.1371C87.6238 96.1426 87.6977 96.1633 87.7655 96.198C87.8333 96.2328 87.8934 96.2808 87.9424 96.3393C87.9914 96.3978 88.0281 96.4655 88.0505 96.5385C88.0729 96.6114 88.0805 96.688 88.0727 96.7638C88.065 96.8396 88.0421 96.913 88.0054 96.9795C87.9688 97.0461 87.919 97.1044 87.8593 97.1512C87.7996 97.1979 87.731 97.232 87.6577 97.2515L87.6561 97.2483Z" fill="#7A4612"/>
</g>
<path d="M75.3886 52.3757C82.11 65.5835 96.276 119.063 84.5721 128.158C84.2623 128.4 83.93 128.612 83.5799 128.791C70.1073 135.647 33.5129 90.7596 26.6148 77.2047C24.9629 73.9688 23.9652 70.4396 23.6793 66.8211C23.3935 63.2027 23.8251 59.5669 24.9494 56.1243C25.7789 53.5841 26.9701 51.1794 28.4863 48.9847C29.3386 47.7562 30.291 46.6012 31.3337 45.5312L31.3999 45.4655C31.6171 45.2427 31.8423 45.0199 32.0708 44.8034C32.8111 44.0954 33.5913 43.4306 34.4076 42.8124L34.9096 42.4447L34.9666 42.4157C36.0368 41.6477 37.1607 40.9578 38.3298 40.3514L38.5196 40.2548C39.1113 39.9537 39.7064 39.6749 40.3096 39.42C40.9129 39.1651 41.4277 38.9713 41.9775 38.7837C42.2448 38.6931 42.5142 38.6041 42.7857 38.5167C43.984 38.1438 45.2073 37.8561 46.4466 37.6559L46.7895 37.6016C48.2367 37.3814 49.7 37.2803 51.1648 37.2992C56.1821 37.3583 61.0943 38.7974 65.3667 41.4598C69.6392 44.1222 73.1084 47.906 75.3967 52.3996L75.3886 52.3757Z" stroke="#1D1D1B" stroke-miterlimit="10"/>
<path d="M37.5783 26.3424C38.5563 31.3247 40.1596 35.7042 41.9696 38.7598C41.4039 38.9554 40.8432 39.1686 40.3016 39.3961C39.7601 39.6236 39.1033 39.9298 38.5116 40.2309L38.3218 40.3275C37.1527 40.9339 36.0288 41.6238 34.9586 42.3918C33.5568 39.1205 30.9438 35.2148 27.4787 31.4821C26.8618 30.8179 26.241 30.1824 25.6162 29.5757C21.9892 21.3996 21.3481 14.0812 24.3096 12.574C27.2712 11.0669 32.6629 15.7753 37.0929 23.3063C37.2191 24.3057 37.3809 25.3178 37.5783 26.3424Z" stroke="#1D1D1B" stroke-miterlimit="10"/>
<path d="M37.5792 40.3325L31.3268 26.6375C31.3083 26.5859 31.309 26.5294 31.329 26.4786C31.349 26.4278 31.3868 26.3861 31.4353 26.3614C31.4838 26.3368 31.5398 26.3307 31.5926 26.3445C31.6454 26.3582 31.6916 26.3908 31.7223 26.4362L38.7358 39.756C38.7735 39.8326 38.7958 39.9158 38.8015 40.001C38.8071 40.0861 38.7961 40.1714 38.7689 40.2521C38.7417 40.3327 38.6989 40.4072 38.6429 40.4711C38.587 40.535 38.519 40.5871 38.4429 40.6246C38.3667 40.662 38.2839 40.684 38.1991 40.6893C38.1143 40.6945 38.0292 40.683 37.9487 40.6553C37.8682 40.6276 37.7939 40.5842 37.7299 40.5278C37.666 40.4713 37.6136 40.4028 37.576 40.3262L37.5792 40.3325Z" fill="#1D1D1B"/>
<path d="M34.9523 42.3951L34.8953 42.4241L34.3933 42.7918C33.577 43.41 32.7967 44.0748 32.0564 44.7828C31.828 44.9992 31.6028 45.2221 31.3855 45.4449L31.3194 45.5106C30.2767 46.5805 29.3243 47.7356 28.472 48.964C25.2373 47.3671 21.3966 44.4069 17.7964 40.5105C10.8438 33.0246 7.37653 24.9275 10.0504 22.4323C12.4767 20.1553 19.1825 23.313 25.6239 29.5518C26.2477 30.1618 26.8685 30.7972 27.4864 31.4583C30.9344 35.2357 33.5409 39.1286 34.9523 42.3951Z" stroke="#1D1D1B" stroke-miterlimit="10"/>
<path d="M30.6604 45.7737L20.6432 34.0347C20.6035 33.9911 20.5827 33.9335 20.5853 33.8747C20.5878 33.8159 20.6136 33.7606 20.6568 33.7211C20.7001 33.6815 20.7573 33.6609 20.8159 33.6638C20.8746 33.6666 20.9297 33.6928 20.9694 33.7364L31.6153 44.8949C31.7329 45.0222 31.7956 45.1909 31.7895 45.3639C31.7834 45.5369 31.7091 45.7 31.5829 45.8174C31.4567 45.9348 31.2889 45.9968 31.1165 45.9898C30.9441 45.9828 30.7812 45.9074 30.6636 45.7801L30.6604 45.7737Z" fill="#1D1D1B"/>
<path d="M50.6028 23.8352C51.6139 28.953 51.7489 33.7349 51.1693 37.2689C49.7045 37.25 48.2412 37.3511 46.794 37.5713L46.4511 37.6256C45.2117 37.8258 43.9884 38.1135 42.7902 38.4864C42.5197 38.5706 42.2503 38.6596 41.982 38.7534C40.172 35.6978 38.5687 31.3183 37.5908 26.336C37.3901 25.3103 37.2247 24.3042 37.0943 23.3175C35.9264 14.6196 37.3275 7.5647 40.547 6.93246C44.1254 6.24593 48.6273 13.8164 50.6028 23.8352Z" stroke="#1D1D1B" stroke-miterlimit="10"/>
<path d="M45.7422 37.4533L43.4478 22.3774C43.4373 22.3195 43.4502 22.2599 43.4835 22.2117C43.5169 22.1635 43.5681 22.1307 43.6257 22.1205C43.6834 22.1103 43.7429 22.1235 43.791 22.1572C43.8392 22.191 43.8722 22.2425 43.8826 22.3004L47.0182 37.2289C47.0333 37.313 47.0318 37.3993 47.0137 37.4827C46.9956 37.5661 46.9613 37.645 46.9127 37.715C46.8642 37.7849 46.8023 37.8445 46.7307 37.8903C46.659 37.9361 46.579 37.9673 46.4953 37.982C46.4115 37.9968 46.3255 37.9948 46.2423 37.9762C46.1592 37.9576 46.0803 37.9228 46.0104 37.8737C45.9405 37.8246 45.8808 37.7622 45.8348 37.69C45.7888 37.6179 45.7573 37.5375 45.7422 37.4533Z" fill="#1D1D1B"/>
<path d="M53.3615 69.6466C53.3615 69.6466 54.7207 72.7793 57.4034 72.5325" stroke="black" stroke-miterlimit="10" stroke-linecap="round"/>
<path d="M50.8911 73.6218C50.8911 73.6218 54.2828 73.8601 54.9503 76.4869" stroke="black" stroke-miterlimit="10" stroke-linecap="round"/>
<path d="M53.5117 74.5131C53.9031 74.1316 54.2633 73.7191 54.5888 73.2794C54.8806 72.8841 55.1443 72.4686 55.3781 72.0359" stroke="black" stroke-miterlimit="10"/>
<path d="M63.055 84.076C62.948 84.359 62.8259 84.7138 62.6978 85.1197C62.0117 87.263 61.6731 89.5048 61.695 91.7594L58.3254 91.8306C58.2419 89.5848 57.8008 87.3651 57.0189 85.2557C56.8704 84.8542 56.7287 84.5054 56.6099 84.2251C56.9438 84.1726 57.2568 84.03 57.5153 83.8124C57.8777 84.264 58.3651 84.5978 58.9156 84.7715C58.9816 85.1361 59.0479 85.5273 59.1145 85.9451L59.164 86.3007C59.1888 86.4815 59.279 86.6471 59.4174 86.7659C59.5557 86.8848 59.7326 86.9486 59.9142 86.9452C60.0957 86.9412 60.269 86.8704 60.4012 86.7462C60.5334 86.622 60.6152 86.4531 60.6311 86.2717L60.6594 85.9125C60.6999 85.491 60.7454 85.0951 60.7911 84.731C61.3312 84.5313 61.8003 84.1769 62.1406 83.7116C62.4077 83.913 62.7236 84.0388 63.055 84.076Z" fill="#72A62D"/>
<g opacity="0.23">
<path d="M58.004 85.3915C58.2833 85.6111 58.5994 85.7789 58.9372 85.8867L59.0997 85.9323C59.0374 85.5123 58.9711 85.1211 58.9009 84.7587C58.4932 84.6265 58.1189 84.4065 57.8041 84.1142C57.7464 84.0634 57.6966 84.0126 57.6452 83.9585C57.6306 83.9299 57.616 83.9012 57.5761 83.8855C57.5599 83.8536 57.5437 83.8218 57.5054 83.8012C57.2468 84.0188 56.9339 84.1614 56.6 84.2138C56.7187 84.4942 56.8604 84.843 57.0089 85.2444C57.7998 87.355 58.249 89.5775 58.3393 91.8273L59.2691 91.8071C59.1882 89.6165 58.7611 87.451 58.004 85.3915Z" fill="black"/>
<path d="M63.0548 84.0759C62.9478 84.3589 62.8257 84.7137 62.6976 85.1196C62.5012 85.0551 62.317 84.9578 62.1527 84.8316C61.8125 85.297 61.3433 85.6514 60.8033 85.8511L60.6416 85.9013C60.6821 85.4798 60.7275 85.0839 60.7733 84.7198C61.3134 84.5201 61.7825 84.1657 62.1228 83.7004C62.3938 83.9087 62.7162 84.0386 63.0548 84.0759Z" fill="black"/>
</g>
<path d="M67.7814 80.9571C67.7913 81.3583 67.6991 81.755 67.5137 82.1096C67.3282 82.4642 67.0556 82.765 66.7215 82.9837C66.8596 83.2161 66.9456 83.4757 66.9734 83.7444C67.0013 84.0131 66.9703 84.2843 66.8826 84.5391C66.7949 84.7939 66.6527 85.0261 66.4659 85.2194C66.2791 85.4127 66.0523 85.5625 65.8012 85.6582C65.5502 85.7539 65.2811 85.7932 65.0128 85.7735C64.7444 85.7537 64.4833 85.6753 64.2477 85.5438C64.0122 85.4122 63.8078 85.2307 63.6491 85.012C63.4903 84.7932 63.3809 84.5425 63.3286 84.2774C63.3286 84.2774 63.3128 84.2855 63.3065 84.2887C63.2253 84.2907 63.1441 84.2879 63.0632 84.2802L62.9931 84.2678C62.6816 84.2216 62.3868 84.0955 62.1374 83.9015C61.7995 84.3691 61.3296 84.7241 60.788 84.9209L60.7595 84.9354C60.47 85.038 60.1656 85.0928 59.8581 85.0975C59.5513 85.1047 59.245 85.063 58.9507 84.974L58.922 84.9645C58.3712 84.788 57.8828 84.4541 57.517 84.0039C57.2779 84.2077 56.9901 84.3459 56.6814 84.4051L56.6116 84.4165C56.5322 84.4288 56.4521 84.4361 56.3718 84.4384L56.3496 84.4497C56.2974 84.7746 56.1617 85.0799 55.9559 85.3355C55.8376 85.4827 55.6967 85.6099 55.5383 85.7124L55.3674 85.7994C55.0191 85.976 54.6234 86.0367 54.2373 85.9727C53.8511 85.9087 53.4946 85.7234 53.2192 85.4434C52.9437 85.1634 52.7636 84.8033 52.7047 84.415C52.6459 84.0266 52.7114 83.6302 52.8918 83.2829C52.5475 83.0782 52.2602 82.7892 52.0569 82.4432C51.8537 82.0971 51.741 81.7054 51.7297 81.3047C51.7258 81.1419 51.7392 80.9792 51.7695 80.8194C51.7911 80.7077 51.8187 80.5973 51.8522 80.4887C52.1041 80.7391 52.4277 80.904 52.7772 80.96C54.1208 81.1502 55.4593 79.4909 55.8365 77.2184C56.1496 77.8401 56.6459 78.3505 57.2575 78.68C57.5098 78.8014 57.7908 78.8488 58.068 78.8167C58.6459 78.7391 59.1282 78.3013 59.4556 77.6296C59.7038 77.8156 60.0032 77.9197 60.3122 77.9273C60.8941 77.9358 61.4342 77.5647 61.8701 76.934C62.0207 76.8736 62.1776 76.8301 62.3378 76.8042C62.4507 76.7848 62.5648 76.7736 62.6793 76.7707C63.2351 76.7598 63.7776 76.9471 64.2107 77.2992C64.6437 77.6514 64.939 78.1456 65.0443 78.694C65.1528 78.6783 65.262 78.6682 65.3715 78.6638C65.9919 78.6507 66.5935 78.8845 67.045 79.3141C67.4965 79.7438 67.7612 80.3344 67.7814 80.9571Z" fill="#9CC651"/>
<path d="M57.2447 78.6705L57.1335 78.8434C57.0236 78.8316 56.9131 78.8262 56.8026 78.8273C56.335 78.8384 55.8821 78.9906 55.5032 79.2641C55.011 79.6188 54.6755 80.1516 54.5669 80.7508C54.5402 80.91 54.5289 81.0714 54.5333 81.2329C54.543 81.634 54.655 82.0264 54.8584 82.3727C55.0618 82.719 55.35 83.0077 55.6954 83.2112C55.5473 83.4894 55.4757 83.8025 55.4879 84.1185C55.4966 84.559 55.6639 84.9822 55.9588 85.31C55.8406 85.4572 55.6996 85.5844 55.5412 85.6869L55.3703 85.7738C55.0221 85.9505 54.6263 86.0112 54.2402 85.9472C53.8541 85.8832 53.4976 85.6979 53.2221 85.4179C52.9467 85.1379 52.7665 84.7778 52.7077 84.3894C52.6488 84.0011 52.7143 83.6047 52.8947 83.2574C52.5504 83.0526 52.2631 82.7637 52.0599 82.4177C51.8566 82.0716 51.744 81.6799 51.7326 81.2792C51.7288 81.1164 51.7421 80.9537 51.7725 80.7939C51.794 80.6822 51.8216 80.5718 51.8551 80.4632C52.107 80.7136 52.4307 80.8785 52.7801 80.9345C54.1237 81.1247 55.4622 79.4654 55.8394 77.1929C56.1457 77.8182 56.6365 78.3343 57.2447 78.6705Z" fill="#91BD43"/>
<path opacity="0.23" d="M62.3377 76.788C62.2328 77.0161 62.1099 77.2354 61.9705 77.4439C61.5313 78.0683 60.9928 78.4426 60.4077 78.4357C60.1004 78.4285 59.8025 78.3249 59.5559 78.1395C59.2111 78.8161 58.7336 79.2555 58.1667 79.3235C57.8903 79.3569 57.6098 79.3106 57.3578 79.19C57.1555 79.096 56.9679 78.9727 56.8011 78.8239C56.4545 78.5092 56.1624 78.139 55.9368 77.7284C55.8551 78.2511 55.7144 78.7624 55.5175 79.2526C55.2996 79.8024 54.9821 80.3064 54.5811 80.7394C54.3771 80.9862 54.1171 81.1804 53.8228 81.3058C53.5284 81.4311 53.2082 81.4842 52.8886 81.4604C52.5403 81.4062 52.2178 81.2416 51.9684 80.9907C51.9063 80.9314 51.8453 80.8662 51.7853 80.7952C51.8068 80.6835 51.8344 80.5731 51.8679 80.4645C52.1198 80.7149 52.4434 80.8798 52.7929 80.9358C54.1365 81.126 55.475 79.4667 55.8522 77.1942C56.1654 77.8159 56.6616 78.3263 57.2732 78.6558C57.5255 78.7772 57.8065 78.8246 58.0837 78.7925C58.6617 78.7149 59.1439 78.2771 59.4713 77.6053C59.7195 77.7914 60.0189 77.8955 60.3279 77.903C60.9098 77.9115 61.45 77.5405 61.8858 76.9097C62.0317 76.8533 62.1832 76.8125 62.3377 76.788Z" fill="black"/>
<path d="M72.8726 84.1508C70.6045 86.0186 67.8465 86.5402 65.8948 85.4369C65.7925 85.3767 63.7139 84.1415 63.7321 82.2361C63.7477 80.2237 66.0633 78.9892 66.8573 78.5691C68.2557 77.8502 69.8413 77.5775 71.4029 77.7872" fill="#F18919"/>
<path d="M72.8726 84.1508C70.6045 86.0186 67.8465 86.5402 65.8948 85.4369C65.7925 85.3767 63.7139 84.1415 63.7321 82.2361C63.7477 80.2237 66.0633 78.9892 66.8573 78.5691C68.2557 77.8502 69.8413 77.5775 71.4029 77.7872" stroke="black" stroke-miterlimit="10"/>
<path d="M53.7647 93.8748C56.6096 93.1406 58.6515 91.2195 58.9083 88.9923C58.923 88.8725 59.1447 86.4667 57.5967 85.3583C55.9575 84.1881 53.5998 85.3319 52.7896 85.7281C51.3847 86.4363 50.2299 87.5581 49.4789 88.9443" fill="#F18919"/>
<path d="M53.7647 93.8748C56.6096 93.1406 58.6515 91.2195 58.9083 88.9923C58.923 88.8725 59.1447 86.4667 57.5967 85.3583C55.9575 84.1881 53.5998 85.3319 52.7896 85.7281C51.3847 86.4363 50.2299 87.5581 49.4789 88.9443" stroke="black" stroke-miterlimit="10"/>
<path d="M42.2911 69.8726C44.5174 68.7396 45.3979 66.005 44.2577 63.7646C43.1176 61.5242 40.3886 60.6265 38.1623 61.7594C35.9361 62.8924 35.0556 65.627 36.1957 67.8674C37.3359 70.1078 40.0649 71.0055 42.2911 69.8726Z" fill="#462A13"/>
<path d="M41.6544 65.9992C42.6278 65.5039 43.0127 64.3083 42.5142 63.3288C42.0158 62.3493 40.8226 61.9568 39.8493 62.4521C38.876 62.9475 38.491 64.1431 38.9895 65.1226C39.488 66.1021 40.6811 66.4946 41.6544 65.9992Z" fill="white"/>
<path d="M39.8251 69.1992C40.255 68.9804 40.425 68.4524 40.2048 68.0198C39.9847 67.5872 39.4577 67.4138 39.0279 67.6326C38.598 67.8514 38.428 68.3794 38.6481 68.812C38.8683 69.2446 39.3952 69.4179 39.8251 69.1992Z" fill="white"/>
<path d="M60.2184 60.7493C62.4446 59.6164 63.3251 56.8817 62.185 54.6413C61.0448 52.4009 58.3158 51.5032 56.0896 52.6361C53.8633 53.7691 52.9829 56.5037 54.123 58.7441C55.2631 60.9845 57.9921 61.8822 60.2184 60.7493Z" fill="#462A13"/>
<path d="M59.5819 56.8761C60.5552 56.3807 60.9402 55.1852 60.4417 54.2056C59.9433 53.2261 58.7501 52.8336 57.7768 53.329C56.8034 53.8243 56.4185 55.0199 56.917 55.9994C57.4154 56.9789 58.6086 57.3714 59.5819 56.8761Z" fill="white"/>
<path d="M57.7558 60.0743C58.1856 59.8555 58.3557 59.3275 58.1355 58.8949C57.9153 58.4623 57.3884 58.2889 56.9585 58.5077C56.5286 58.7265 56.3586 59.2545 56.5788 59.6871C56.7989 60.1197 57.3259 60.2931 57.7558 60.0743Z" fill="white"/>
</svg>
