<svg width="242" height="102" viewBox="0 0 242 102" fill="none" xmlns="http://www.w3.org/2000/svg">
<rect y="35" width="242" height="67" rx="27" fill="white"/>
<path d="M12.25 68.5625C12.25 67.1458 12.4375 65.6042 12.8125 63.9375C13.2292 62.2708 13.7917 60.6042 14.5 58.9375C15.2083 57.2292 16.0625 55.5833 17.0625 54C18.0625 52.375 19.1875 50.9583 20.4375 49.75C21.6875 48.5 23.0417 47.5208 24.5 46.8125C25.9583 46.0625 27.5 45.6875 29.125 45.6875C30.4583 45.6875 31.7083 45.875 32.875 46.25C34.0417 46.5833 35.0417 47.1042 35.875 47.8125C36.7083 48.5208 37.3542 49.4167 37.8125 50.5C38.3125 51.5417 38.5625 52.7917 38.5625 54.25C37.6458 54.25 36.8958 54.0208 36.3125 53.5625C35.7708 53.0625 35.25 52.5208 34.75 51.9375C34.2917 51.3542 33.7708 50.8333 33.1875 50.375C32.6458 49.9167 31.9375 49.6875 31.0625 49.6875C29.7708 49.6875 28.5208 50.0208 27.3125 50.6875C26.1458 51.3542 25.0417 52.25 24 53.375C23 54.5 22.1042 55.7708 21.3125 57.1875C20.5625 58.6042 19.8958 60.0417 19.3125 61.5C18.7708 62.9167 18.3333 64.3125 18 65.6875C17.7083 67.0625 17.5625 68.25 17.5625 69.25C17.5625 71.4167 17.875 73.4583 18.5 75.375C19.1667 77.25 20.1042 78.8958 21.3125 80.3125C22.5208 81.6875 24.0208 82.7708 25.8125 83.5625C27.6042 84.3542 29.6458 84.75 31.9375 84.75C33.3958 84.75 34.7708 84.5417 36.0625 84.125C37.3958 83.6667 38.6667 83.1875 39.875 82.6875C41.125 82.1458 42.3542 81.6458 43.5625 81.1875C44.7708 80.7292 45.9792 80.5 47.1875 80.5C47.3542 80.5 47.5833 80.5208 47.875 80.5625C48.2083 80.5625 48.5 80.6042 48.75 80.6875C49.0417 80.7708 49.2917 80.9167 49.5 81.125C49.7083 81.2917 49.8125 81.5625 49.8125 81.9375C49.8125 83.4375 49.2292 84.7083 48.0625 85.75C46.9375 86.7917 45.5833 87.6458 44 88.3125C42.4167 88.9375 40.7708 89.3958 39.0625 89.6875C37.3542 89.9792 35.9583 90.125 34.875 90.125C31.7083 90.125 28.75 89.625 26 88.625C23.25 87.5833 20.8542 86.125 18.8125 84.25C16.7708 82.375 15.1667 80.125 14 77.5C12.8333 74.8333 12.25 71.8542 12.25 68.5625ZM79.3125 81.9375C77.7292 83.0208 76.3542 84 75.1875 84.875C74.0625 85.7083 72.9583 86.4167 71.875 87C70.7917 87.5833 69.625 88.0208 68.375 88.3125C67.1667 88.6042 65.6667 88.75 63.875 88.75C60 88.75 57.125 87.7292 55.25 85.6875C53.375 83.6042 52.4375 80.5208 52.4375 76.4375C52.4375 74.8542 52.6458 73.2083 53.0625 71.5C53.4792 69.7917 54.0833 68.1042 54.875 66.4375C55.7083 64.7292 56.6875 63.125 57.8125 61.625C58.9375 60.0833 60.2083 58.7292 61.625 57.5625C63.0417 56.3958 64.5417 55.4792 66.125 54.8125C67.75 54.1042 69.4583 53.75 71.25 53.75C74.25 54.0417 76.6042 54.7917 78.3125 56C80.0208 57.1667 81.3125 58.6875 82.1875 60.5625C83.0625 62.3958 83.6667 64.4583 84 66.75C84.3333 69 84.5833 71.3333 84.75 73.75C84.9583 76.1667 85.2083 78.5833 85.5 81C85.7917 83.4167 86.3958 85.6458 87.3125 87.6875C86.7708 89.0625 86.25 90.0208 85.75 90.5625C85.2917 91.1458 84.7708 91.25 84.1875 90.875C83.6042 90.5 82.9167 89.5833 82.125 88.125C81.375 86.6667 80.4375 84.6042 79.3125 81.9375ZM57.75 76.5625C57.75 78.9375 58.1875 80.6875 59.0625 81.8125C59.9792 82.8958 61.5833 83.4375 63.875 83.4375C65.5833 83.4375 67.2083 83.1458 68.75 82.5625C70.3333 81.9375 71.7083 81.1042 72.875 80.0625C74.0417 78.9792 74.9792 77.6875 75.6875 76.1875C76.3958 74.6875 76.75 73.0208 76.75 71.1875C76.75 70.4375 76.7708 69.3958 76.8125 68.0625C76.8542 66.6875 76.7708 65.3333 76.5625 64C76.3542 62.6667 75.9583 61.5208 75.375 60.5625C74.7917 59.5625 73.9167 59.0625 72.75 59.0625C70.5833 59.0625 68.5833 59.625 66.75 60.75C64.9167 61.8333 63.3333 63.2292 62 64.9375C60.6667 66.6458 59.625 68.5417 58.875 70.625C58.125 72.6667 57.75 74.6458 57.75 76.5625ZM91.25 63.75C91.25 63.375 91.2708 63 91.3125 62.625C91.3542 62.2083 91.4375 61.8542 91.5625 61.5625C91.6875 61.2292 91.875 60.9583 92.125 60.75C92.4167 60.5417 92.8125 60.4375 93.3125 60.4375C93.7292 60.4375 94.1875 60.7708 94.6875 61.4375C95.2292 62.0625 95.7708 62.875 96.3125 63.875C96.8542 64.8333 97.375 65.8958 97.875 67.0625C98.4167 68.2292 98.875 69.3125 99.25 70.3125C99.6667 71.2708 100 72.1042 100.25 72.8125C100.5 73.5208 100.646 73.8958 100.688 73.9375C101.229 72.4792 101.833 70.8958 102.5 69.1875C103.167 67.4792 103.979 65.8958 104.938 64.4375C105.938 62.9375 107.104 61.6875 108.438 60.6875C109.812 59.6875 111.479 59.1875 113.438 59.1875C114.438 59.1875 115.375 59.3542 116.25 59.6875C117.167 59.9792 117.958 60.4375 118.625 61.0625C119.333 61.6458 119.896 62.3542 120.312 63.1875C120.729 64.0208 120.938 64.9792 120.938 66.0625C120.938 66.9792 120.562 67.625 119.812 68C119.104 68.375 118.292 68.5625 117.375 68.5625H116.75L114.062 65.875C113.979 65.875 113.917 65.8542 113.875 65.8125C113.792 65.8125 113.708 65.8125 113.625 65.8125C113.583 65.7708 113.521 65.75 113.438 65.75C111.979 65.75 110.833 66.1667 110 67C109.208 67.7917 108.604 68.7917 108.188 70C107.771 71.1667 107.5 72.4167 107.375 73.75C107.292 75.0417 107.25 76.2292 107.25 77.3125C107.25 78.1458 107.333 79 107.5 79.875C107.667 80.7083 107.854 81.5417 108.062 82.375C108.271 83.1667 108.458 84 108.625 84.875C108.792 85.7083 108.875 86.5833 108.875 87.5C108.875 89.25 107.938 90.125 106.062 90.125C105.021 90.125 103.938 89.5833 102.812 88.5C101.688 87.375 100.562 85.9583 99.4375 84.25C98.3542 82.5417 97.3125 80.6667 96.3125 78.625C95.3125 76.5417 94.4375 74.5208 93.6875 72.5625C92.9375 70.6042 92.3333 68.8333 91.875 67.25C91.4583 65.6667 91.25 64.5 91.25 63.75ZM123.188 72.625C123.188 70.375 123.458 68.125 124 65.875C124.542 63.625 125.396 61.6042 126.562 59.8125C127.771 58.0208 129.312 56.5625 131.188 55.4375C133.104 54.3125 135.417 53.75 138.125 53.75C139.667 53.75 141.021 54.0417 142.188 54.625C143.354 55.1667 144.333 55.8958 145.125 56.8125C145.917 57.7292 146.5 58.8125 146.875 60.0625C147.292 61.2708 147.5 62.5417 147.5 63.875C147.5 66 147 68.0625 146 70.0625C145.042 72.0625 143.729 73.8333 142.062 75.375C140.438 76.875 138.562 78.0208 136.438 78.8125C134.312 79.5625 132.146 79.7292 129.938 79.3125C129.979 80.5208 130.375 81.5 131.125 82.25C131.917 82.9583 132.854 83.5 133.938 83.875C135.021 84.25 136.146 84.5 137.312 84.625C138.479 84.7083 139.521 84.75 140.438 84.75C141.396 84.75 142.292 84.6667 143.125 84.5C143.958 84.3333 144.792 84.1458 145.625 83.9375C146.458 83.7292 147.292 83.5417 148.125 83.375C149 83.2083 149.917 83.125 150.875 83.125C151.25 83.125 151.625 83.1458 152 83.1875C152.375 83.2292 152.729 83.3333 153.062 83.5C153.396 83.625 153.667 83.8542 153.875 84.1875C154.083 84.4792 154.188 84.8542 154.188 85.3125C154.188 86.1042 153.896 86.7708 153.312 87.3125C152.729 87.8125 151.979 88.25 151.062 88.625C150.188 89 149.208 89.2917 148.125 89.5C147.042 89.6667 145.979 89.8125 144.938 89.9375C143.938 90.0208 143 90.0625 142.125 90.0625C141.292 90.1042 140.667 90.125 140.25 90.125C137.583 90.125 135.188 89.7083 133.062 88.875C130.938 88 129.146 86.8125 127.688 85.3125C126.229 83.7708 125.104 81.9375 124.312 79.8125C123.562 77.6458 123.188 75.25 123.188 72.625ZM129.812 68.5625C129.812 70.0208 130 71.0833 130.375 71.75C130.792 72.4167 131.771 72.75 133.312 72.75C134.396 72.75 135.458 72.5625 136.5 72.1875C137.542 71.7708 138.479 71.2083 139.312 70.5C140.188 69.7917 140.875 68.9583 141.375 68C141.875 67.0417 142.125 66 142.125 64.875C142.125 64.25 142.062 63.6042 141.938 62.9375C141.854 62.2708 141.646 61.6667 141.312 61.125C140.979 60.5417 140.542 60.0833 140 59.75C139.5 59.375 138.833 59.1875 138 59.1875C136.75 59.1875 135.604 59.4792 134.562 60.0625C133.562 60.6042 132.708 61.3333 132 62.25C131.292 63.125 130.75 64.125 130.375 65.25C130 66.3333 129.812 67.4375 129.812 68.5625Z" fill="#F18818"/>
<path d="M159.25 78.4458C159.25 75.8625 159.854 73.4666 161.062 71.2583C162.271 69.0083 163.854 67.0916 165.812 65.5083C167.812 63.8833 170.042 62.6125 172.5 61.6958C175 60.7791 177.521 60.3208 180.062 60.3208C181.479 60.3208 182.729 60.7791 183.812 61.6958C184.938 62.6125 185.875 63.7375 186.625 65.0708C187.375 66.3625 187.938 67.7375 188.312 69.1958C188.729 70.6541 188.938 71.925 188.938 73.0083C188.938 75.3416 188.375 77.6125 187.25 79.8208C186.125 81.9875 184.667 83.925 182.875 85.6333C181.083 87.3 179.062 88.6541 176.812 89.6958C174.562 90.7375 172.312 91.2583 170.062 91.2583C168.062 91.2583 166.375 90.925 165 90.2583C163.625 89.55 162.521 88.6333 161.688 87.5083C160.854 86.3416 160.229 84.9875 159.812 83.4458C159.438 81.8625 159.25 80.1958 159.25 78.4458ZM164.562 79.0708C164.562 80.1541 164.646 81.1125 164.812 81.9458C165.021 82.7375 165.354 83.425 165.812 84.0083C166.312 84.5916 166.958 85.05 167.75 85.3833C168.542 85.675 169.521 85.8208 170.688 85.8208C172.229 85.8208 173.771 85.4041 175.312 84.5708C176.854 83.6958 178.229 82.6125 179.438 81.3208C180.688 79.9875 181.688 78.5291 182.438 76.9458C183.188 75.3625 183.562 73.8208 183.562 72.3208C183.562 71.6541 183.5 70.925 183.375 70.1333C183.25 69.3416 183.042 68.6125 182.75 67.9458C182.458 67.2791 182.042 66.7166 181.5 66.2583C180.958 65.8 180.271 65.5708 179.438 65.5708C178.688 65.5708 177.792 65.8208 176.75 66.3208C175.75 66.8208 174.688 67.4666 173.562 68.2583C172.479 69.05 171.396 69.9458 170.312 70.9458C169.271 71.9458 168.312 72.9458 167.438 73.9458C166.562 74.9458 165.854 75.9041 165.312 76.8208C164.812 77.7375 164.562 78.4875 164.562 79.0708ZM190 59.6333C190 59.5083 190.021 59.4041 190.062 59.3208C190.062 59.2375 190.083 59.1333 190.125 59.0083C190.292 58.8 190.542 58.5291 190.875 58.1958C191.208 57.8625 191.417 57.6958 191.5 57.6958H204.062C204.062 57.2375 204 56.5083 203.875 55.5083C203.75 54.5083 203.625 53.4041 203.5 52.1958C203.417 50.9875 203.396 49.7375 203.438 48.4458C203.479 47.1125 203.646 45.925 203.938 44.8833C204.271 43.8 204.771 42.925 205.438 42.2583C206.146 41.55 207.125 41.1958 208.375 41.1958C208.375 45.4041 208.667 48.7791 209.25 51.3208C209.833 53.8625 210.604 55.8208 211.562 57.1958C212.562 58.5708 213.688 59.4666 214.938 59.8833C216.188 60.3 217.458 60.4875 218.75 60.4458C220.083 60.3625 221.375 60.1541 222.625 59.8208C223.875 59.4875 224.979 59.2583 225.938 59.1333C226.938 59.0083 227.729 59.1125 228.312 59.4458C228.896 59.7375 229.188 60.4666 229.188 61.6333C229.188 62.5083 228.979 63.1333 228.562 63.5083C228.188 63.8833 227.438 64.175 226.312 64.3833C225.979 64.425 225.417 64.5083 224.625 64.6333C223.875 64.7166 223.021 64.8 222.062 64.8833C221.104 64.9666 220.083 65.0708 219 65.1958C217.917 65.2791 216.896 65.3625 215.938 65.4458C214.979 65.5291 214.104 65.5916 213.312 65.6333C212.521 65.6333 211.938 65.6333 211.562 65.6333C211.562 65.8416 211.542 66.1958 211.5 66.6958C211.458 67.1958 211.438 67.5291 211.438 67.6958C211.438 69.5291 211.729 71.3208 212.312 73.0708C212.896 74.7791 213.521 76.4875 214.188 78.1958C214.896 79.9041 215.542 81.6125 216.125 83.3208C216.708 85.0291 217 86.8 217 88.6333C217 88.9666 216.958 89.3208 216.875 89.6958C216.833 90.0291 216.708 90.3416 216.5 90.6333C216.333 90.8833 216.062 91.0708 215.688 91.1958C215.354 91.3625 214.875 91.3416 214.25 91.1333C212.667 90.7166 211.479 89.8208 210.688 88.4458C209.938 87.0708 209.375 85.4458 209 83.5708C208.625 81.6541 208.375 79.6333 208.25 77.5083C208.125 75.3833 207.917 73.4041 207.625 71.5708C207.375 69.6958 206.958 68.1125 206.375 66.8208C205.792 65.4875 204.854 64.675 203.562 64.3833L191.5 61.6333C191.333 61.6333 191.083 61.4666 190.75 61.1333C190.417 60.7583 190.208 60.4875 190.125 60.3208C190.083 60.2375 190.062 60.1333 190.062 60.0083C190.021 59.925 190 59.8 190 59.6333Z" fill="#FABB70"/>
</svg>
